# Blender v2.80 (sub 75) OBJ File: ''
# www.blender.org
mtllib mirror.mtl
o Cube
v 1.000000 2.052257 -1.000000
v 1.000000 0.052257 -1.000000
v 1.000000 0.052257 1.000000
v -1.000000 2.052257 -1.000000
v -1.000000 0.052257 -1.000000
v -1.000000 2.052257 1.000000
v -1.000000 0.052257 1.000000
v 1.000000 2.052257 -1.000000
v 1.000000 0.052257 -1.000000
v 1.000000 0.052257 1.000000
v -1.000000 2.052257 -1.000000
v 1.000000 2.052257 -1.000000
v -1.000000 2.052257 1.000000
v -1.000000 0.052257 1.000000
v 1.000000 2.052257 -1.000000
v 1.000000 0.052257 -1.000000
v 1.000000 0.052257 1.000000
v -1.000000 2.052257 -1.000000
v 0.846986 1.899242 -1.153014
v -1.000000 2.052257 1.000000
v -1.000000 0.052257 1.000000
v 1.000000 0.052257 -1.000000
v 1.000000 0.052257 1.000000
v -1.000000 2.052257 -1.000000
v -1.000000 2.052257 1.000000
v -1.000000 0.052257 1.000000
v 0.846986 -0.100758 -1.153014
v 0.846986 -0.100758 0.846986
v -1.153014 1.899242 -1.153014
v -1.153014 -0.100758 -1.153014
v -1.153014 1.899242 0.846986
v -1.153014 -0.100758 0.846986
vt 0.625000 0.500000
vt 0.375000 0.500000
vt 0.375000 0.750000
vt 0.625000 0.750000
vt 0.375000 1.000000
vt 0.875000 0.500000
vt 0.625000 0.500000
vt 0.875000 0.750000
vt 0.625000 0.750000
vt 0.625000 0.750000
vt 0.625000 0.500000
vt 0.625000 0.750000
vt 0.625000 0.750000
vt 0.625000 1.000000
vt 0.625000 1.000000
vt 0.625000 0.750000
vt 0.875000 0.750000
vt 0.625000 1.000000
vt 0.375000 1.000000
vt 0.375000 1.000000
vt 0.375000 1.000000
vt 0.875000 0.500000
vt 0.875000 0.750000
vt 0.875000 0.750000
vt 0.625000 0.750000
vt 0.875000 0.500000
vt 0.375000 0.500000
vt 0.625000 0.500000
vt 0.625000 0.750000
vt 0.625000 0.750000
vt 0.625000 0.500000
vt 0.625000 1.000000
vt 0.625000 1.000000
vt 0.375000 0.500000
vt 0.625000 0.500000
vt 0.375000 0.500000
vt 0.375000 0.750000
vt 0.375000 0.500000
vt 0.375000 1.000000
vt 0.625000 0.750000
vt 0.625000 0.500000
vt 0.875000 0.500000
vt 0.875000 0.750000
vt 0.875000 0.500000
vn 1.0000 0.0000 0.0000
vn 0.0000 1.0000 0.0000
vn 0.0000 0.0000 1.0000
vn -0.7071 0.7071 0.0000
vn 0.7071 -0.7071 0.0000
vn -0.7071 0.0000 0.7071
vn -1.0000 0.0000 0.0000
vn 0.0000 -1.0000 0.0000
vn 0.0000 0.0000 -1.0000
vn 0.7071 0.0000 -0.7071
vn 0.0000 0.7071 -0.7071
vn 0.0000 -0.7071 0.7071
usemtl Material
s off
f 6/1/1 7/2/1 5/3/1
f 2/4/2 5/3/2 7/5/2
f 4/6/3 5/7/3 2/4/3
f 8/8/3 9/9/3 16/10/3
f 13/11/3 11/12/3 18/13/3
f 9/9/3 10/14/3 17/15/3
f 6/1/3 4/16/3 11/12/3
f 1/17/3 2/4/3 9/9/3
f 4/6/3 1/17/3 8/8/3
f 3/18/3 7/5/3 14/19/3
f 7/2/3 6/1/3 13/11/3
f 2/4/3 3/18/3 10/14/3
f 17/15/3 21/20/3 26/21/3
f 18/22/3 15/23/3 12/24/3
f 15/23/3 16/10/3 22/25/3
f 11/26/3 8/8/3 15/23/3
f 10/14/3 14/19/3 21/20/3
f 14/27/3 13/11/3 20/28/3
f 24/29/4 29/30/4 31/31/4
f 22/25/5 23/32/5 28/33/5
f 26/34/6 25/35/6 31/31/6
f 21/36/3 20/28/3 25/35/3
f 16/10/3 17/15/3 23/32/3
f 20/28/3 18/13/3 24/29/3
f 30/37/7 32/38/7 31/31/7
f 32/39/8 30/37/8 27/40/8
f 27/40/9 30/41/9 29/42/9
f 22/25/10 27/40/10 19/43/10
f 24/44/11 12/24/11 19/43/11
f 26/21/12 32/39/12 28/33/12
f 6/1/1 5/3/1 4/16/1
f 2/4/2 7/5/2 3/18/2
f 4/6/3 2/4/3 1/17/3
f 8/8/3 16/10/3 15/23/3
f 13/11/3 18/13/3 20/28/3
f 9/9/3 17/15/3 16/10/3
f 6/1/3 11/12/3 13/11/3
f 1/17/3 9/9/3 8/8/3
f 4/6/3 8/8/3 11/26/3
f 3/18/3 14/19/3 10/14/3
f 7/2/3 13/11/3 14/27/3
f 2/4/3 10/14/3 9/9/3
f 17/15/3 26/21/3 23/32/3
f 18/22/3 12/24/3 24/44/3
f 15/23/3 22/25/3 12/24/3
f 11/26/3 15/23/3 18/22/3
f 10/14/3 21/20/3 17/15/3
f 14/27/3 20/28/3 21/36/3
f 24/29/4 31/31/4 25/35/4
f 22/25/5 28/33/5 27/40/5
f 26/34/6 31/31/6 32/38/6
f 21/36/3 25/35/3 26/34/3
f 16/10/3 23/32/3 22/25/3
f 20/28/3 24/29/3 25/35/3
f 30/37/7 31/31/7 29/30/7
f 32/39/8 27/40/8 28/33/8
f 27/40/9 29/42/9 19/43/9
f 22/25/10 19/43/10 12/24/10
f 24/44/11 19/43/11 29/42/11
f 26/21/12 28/33/12 23/32/12
