# Blender v2.80 (sub 75) OBJ File: ''
# www.blender.org
mtllib skydome-reflect.mtl
o Sphere
v 0.000000 0.912095 -0.000000
v 0.454519 0.707107 -0.541675
v 0.556670 0.500000 -0.663414
v 0.620885 0.258819 -0.739942
v 0.642787 0.000000 -0.766045
v 0.696364 0.707107 -0.122788
v 0.852868 0.500000 -0.150384
v 0.951251 0.258819 -0.167732
v 0.984807 0.000000 -0.173649
v 0.612372 0.707107 0.353553
v 0.750000 0.500000 0.433012
v 0.836516 0.258819 0.482962
v 0.866025 0.000000 0.499999
v 0.241845 0.707107 0.664462
v 0.296198 0.500000 0.813797
v 0.330366 0.258819 0.907673
v 0.342020 0.000000 0.939692
v -0.241845 0.707107 0.664462
v -0.296198 0.500000 0.813797
v -0.330366 0.258819 0.907673
v -0.342020 0.000000 0.939692
v -0.612372 0.707107 0.353553
v -0.750000 0.500000 0.433012
v -0.836516 0.258819 0.482962
v -0.866025 0.000000 0.499999
v 0.000000 -1.388422 -0.000000
v -0.696364 0.707107 -0.122788
v -0.852868 0.500000 -0.150384
v -0.951251 0.258819 -0.167731
v -0.984807 0.000000 -0.173648
v -0.454519 0.707107 -0.541675
v -0.556670 0.500000 -0.663414
v -0.620885 0.258819 -0.739942
v -0.642787 0.000000 -0.766044
v -0.000000 -0.314701 -1.000000
v -0.642787 -0.314701 -0.766044
v -0.984807 -0.314701 -0.173648
v -0.866025 -0.314701 0.499999
v -0.000000 0.707107 -0.707107
v -0.000000 0.500000 -0.866025
v -0.000000 0.258819 -0.965926
v -0.000000 0.000000 -1.000000
v -0.342020 -0.314701 0.939692
v 0.342020 -0.314701 0.939692
v 0.866025 -0.314701 0.499999
v 0.984807 -0.314701 -0.173649
v 0.642787 -0.314701 -0.766045
vt 0.666667 0.583333
vt 0.555556 0.583333
vt 0.555556 0.666667
vt 0.666667 0.500000
vt 0.555556 0.500000
vt 0.666667 0.750000
vt 0.555556 0.750000
vt 0.555556 0.833333
vt 0.666667 0.666667
vt 0.444445 0.750000
vt 0.444445 0.833333
vt 0.444445 0.666667
vt 0.444445 0.583333
vt 0.444445 0.500000
vt 0.333334 0.583333
vt 0.333334 0.500000
vt 0.333334 0.750000
vt 0.333334 0.833333
vt 0.333334 0.666667
vt 0.222222 0.666667
vt 0.222222 0.583333
vt 0.222222 0.500000
vt 0.222222 0.750000
vt 0.222222 0.833334
vt 0.111111 0.500000
vt 0.111111 0.583333
vt 0.111111 0.750000
vt 0.111111 0.833334
vt 0.111111 0.666667
vt 0.000000 0.583333
vt 0.000000 0.500000
vt 0.000000 0.750000
vt 0.000000 0.833333
vt 0.000000 0.666667
vt 1.000000 0.500000
vt 1.000000 0.500000
vt 0.888889 0.500000
vt 1.000000 0.666667
vt 0.888889 0.666667
vt 0.888889 0.750000
vt 0.222222 0.500000
vt 0.222222 0.500000
vt 0.111111 0.500000
vt 0.333334 0.500000
vt 0.333334 0.500000
vt 1.000000 0.583333
vt 0.888889 0.583333
vt 0.555556 0.500000
vt 0.555556 0.500000
vt 0.444445 0.500000
vt 0.666667 0.500000
vt 0.666667 0.500000
vt 1.000000 0.500000
vt 0.888889 0.500000
vt 1.000000 0.750000
vt 0.888889 0.833333
vt 0.888889 0.500000
vt 0.777778 0.500000
vt 0.777778 0.500000
vt 0.777778 0.583333
vt 0.777778 0.750000
vt 0.777778 0.833333
vt 0.111111 0.500000
vt 0.000000 0.500000
vt 0.777778 0.666667
vt 0.777778 0.500000
vt 0.444445 0.500000
vt 0.666667 0.833333
vn 0.0000 -0.2520 0.9677
vn -0.6220 -0.2520 0.7413
vn -0.5610 -0.4880 0.6686
vn 0.0000 -0.0645 0.9979
vn -0.6414 -0.0645 0.7644
vn 0.0000 -0.7943 0.6074
vn -0.3905 -0.7943 0.4653
vn 0.0000 -1.0000 0.0000
vn 0.0000 -0.4880 0.8728
vn -0.5982 -0.7943 0.1055
vn -0.8596 -0.4880 0.1516
vn -0.9530 -0.2520 0.1680
vn -0.9828 -0.0645 0.1733
vn -0.8381 -0.2520 -0.4838
vn -0.8642 -0.0645 -0.4989
vn -0.5260 -0.7943 -0.3037
vn -0.7559 -0.4880 -0.4364
vn -0.2985 -0.4880 -0.8202
vn -0.3310 -0.2520 -0.9094
vn -0.3413 -0.0645 -0.9377
vn -0.2077 -0.7943 -0.5708
vn 0.3413 -0.0645 -0.9377
vn 0.3310 -0.2520 -0.9094
vn 0.2077 -0.7943 -0.5708
vn 0.2985 -0.4880 -0.8202
vn 0.8381 -0.2520 -0.4838
vn 0.8642 -0.0645 -0.4989
vn 0.5260 -0.7943 -0.3037
vn 0.7559 -0.4880 -0.4364
vn 0.8139 0.3415 -0.4699
vn 0.0000 1.0000 0.0000
vn 0.9256 0.3415 0.1632
vn 0.8596 -0.4880 0.1516
vn 0.5982 -0.7943 0.1055
vn -0.3215 0.3415 -0.8832
vn 0.3215 0.3415 -0.8832
vn -0.8139 0.3415 -0.4699
vn 0.9530 -0.2520 0.1680
vn -0.6041 0.3415 0.7200
vn -0.9256 0.3415 0.1632
vn 0.0000 0.3415 0.9398
vn 0.9828 -0.0645 0.1733
vn 0.6041 0.3415 0.7200
vn 0.6414 -0.0645 0.7644
vn 0.6220 -0.2520 0.7413
vn 0.3905 -0.7943 0.4653
vn 0.5610 -0.4880 0.6686
usemtl None
s 1
f 41/1/1 4/2/2 3/3/3
f 42/4/4 5/5/5 4/2/2
f 39/6/6 2/7/7 1/8/8
f 40/9/9 3/3/3 2/7/7
f 2/7/7 6/10/10 1/11/8
f 3/3/3 7/12/11 6/10/10
f 3/3/3 4/2/2 8/13/12
f 4/2/2 5/5/5 9/14/13
f 7/12/11 8/13/12 12/15/14
f 8/13/12 9/14/13 13/16/15
f 6/10/10 10/17/16 1/18/8
f 6/10/10 7/12/11 11/19/17
f 10/17/16 11/19/17 15/20/18
f 11/19/17 12/15/14 16/21/19
f 12/15/14 13/16/15 17/22/20
f 10/17/16 14/23/21 1/24/8
f 17/22/20 21/25/22 20/26/23
f 14/23/21 18/27/24 1/28/8
f 14/23/21 15/20/18 19/29/25
f 15/20/18 16/21/19 20/26/23
f 19/29/25 20/26/23 24/30/26
f 21/25/22 25/31/27 24/30/26
f 18/27/24 22/32/28 1/33/8
f 18/27/24 19/29/25 23/34/29
f 38/35/30 26/36/31 37/37/32
f 23/38/29 28/39/33 27/40/34
f 44/41/35 26/42/31 43/43/36
f 45/44/37 26/45/31 44/41/35
f 23/38/29 24/46/26 29/47/38
f 47/48/39 26/49/31 46/50/40
f 35/51/41 26/52/31 47/48/39
f 25/53/27 30/54/42 29/47/38
f 22/55/28 27/40/34 1/56/8
f 37/37/32 26/57/31 36/58/43
f 30/54/42 34/59/44 33/60/45
f 27/40/34 31/61/46 1/62/8
f 25/31/27 21/25/22 43/43/36
f 43/43/36 26/63/31 38/64/30
f 28/39/33 32/65/47 31/61/46
f 21/25/22 17/22/20 44/41/35
f 36/58/43 26/66/31 35/51/41
f 28/39/33 29/47/38 33/60/45
f 9/14/13 5/5/5 47/48/39
f 46/50/40 26/67/31 45/44/37
f 17/22/20 13/16/15 45/44/37
f 32/65/47 33/60/45 41/1/1
f 30/54/42 25/53/27 38/35/30
f 13/16/15 9/14/13 46/50/40
f 34/59/44 42/4/4 41/1/1
f 31/61/46 39/6/6 1/68/8
f 5/5/5 42/4/4 35/51/41
f 34/59/44 30/54/42 37/37/32
f 32/65/47 40/9/9 39/6/6
f 42/4/4 34/59/44 36/58/43
f 41/1/1 3/3/3 40/9/9
f 42/4/4 4/2/2 41/1/1
f 40/9/9 2/7/7 39/6/6
f 3/3/3 6/10/10 2/7/7
f 3/3/3 8/13/12 7/12/11
f 4/2/2 9/14/13 8/13/12
f 7/12/11 12/15/14 11/19/17
f 8/13/12 13/16/15 12/15/14
f 6/10/10 11/19/17 10/17/16
f 10/17/16 15/20/18 14/23/21
f 11/19/17 16/21/19 15/20/18
f 12/15/14 17/22/20 16/21/19
f 17/22/20 20/26/23 16/21/19
f 14/23/21 19/29/25 18/27/24
f 15/20/18 20/26/23 19/29/25
f 19/29/25 24/30/26 23/34/29
f 21/25/22 24/30/26 20/26/23
f 18/27/24 23/34/29 22/32/28
f 23/38/29 27/40/34 22/55/28
f 23/38/29 29/47/38 28/39/33
f 25/53/27 29/47/38 24/46/26
f 30/54/42 33/60/45 29/47/38
f 25/31/27 43/43/36 38/64/30
f 28/39/33 31/61/46 27/40/34
f 21/25/22 44/41/35 43/43/36
f 28/39/33 33/60/45 32/65/47
f 9/14/13 47/48/39 46/50/40
f 17/22/20 45/44/37 44/41/35
f 32/65/47 41/1/1 40/9/9
f 30/54/42 38/35/30 37/37/32
f 13/16/15 46/50/40 45/44/37
f 34/59/44 41/1/1 33/60/45
f 5/5/5 35/51/41 47/48/39
f 34/59/44 37/37/32 36/58/43
f 32/65/47 39/6/6 31/61/46
f 42/4/4 36/58/43 35/51/41
